<svg xmlns="http://www.w3.org/2000/svg" viewBox="0 0 64 64">
  <path d="M18 23c2-9 10-14 20-14 10 0 16 6 16 15 0 10-7 17-18 20 4-4 5-9 2-13-6 1-11-1-20-8z" fill="#6bf048" stroke="#3e67ff" stroke-width="2"/>
  <path d="M22 27c4-7 10-10 18-9-3 2-4 4-5 7 3 0 5 1 6 3-3 5-8 8-14 8-3-2-4-5-5-9z" fill="#6bf048"/>
  <circle cx="34" cy="24" r="1.8" fill="#0e3f1c"/>
  <path d="M15 48h34l-2 6H13z" fill="#3e67ff"/>
  <text x="32" y="49" text-anchor="middle" font-size="9" font-family="Arial, sans-serif" font-weight="700" fill="#3e67ff">DRG</text>
</svg>
