<svg xmlns="http://www.w3.org/2000/svg" viewBox="0 0 64 64">
  <circle cx="32" cy="32" r="29" fill="#ffffff"/>
  <clipPath id="usa-clip">
    <circle cx="32" cy="32" r="28"/>
  </clipPath>
  <g clip-path="url(#usa-clip)">
    <rect x="0" y="0" width="64" height="64" fill="#ffffff"/>
    <rect x="0" y="0" width="31" height="32" fill="#173f7c"/>
    <path d="M0 8h64M0 16h64M0 24h64M0 32h64M0 40h64M0 48h64M0 56h64" stroke="#e11d38" stroke-width="8"/>
    <g fill="#ffffff">
      <circle cx="6" cy="6" r="1.2"/><circle cx="12" cy="6" r="1.2"/><circle cx="18" cy="6" r="1.2"/><circle cx="24" cy="6" r="1.2"/>
      <circle cx="9" cy="12" r="1.2"/><circle cx="15" cy="12" r="1.2"/><circle cx="21" cy="12" r="1.2"/><circle cx="27" cy="12" r="1.2"/>
      <circle cx="6" cy="18" r="1.2"/><circle cx="12" cy="18" r="1.2"/><circle cx="18" cy="18" r="1.2"/><circle cx="24" cy="18" r="1.2"/>
      <circle cx="9" cy="24" r="1.2"/><circle cx="15" cy="24" r="1.2"/><circle cx="21" cy="24" r="1.2"/><circle cx="27" cy="24" r="1.2"/>
    </g>
  </g>
  <circle cx="32" cy="32" r="29" fill="none" stroke="#ffffff" stroke-width="2"/>
</svg>
