<svg xmlns="http://www.w3.org/2000/svg" viewBox="0 0 64 64">
  <path d="M14 10c14 0 28 6 36 18-8 12-22 20-36 20 2-10 2-22 0-38z" fill="#ffffff"/>
  <path d="M16 12c11 1 21 5 29 13l-7 8-12-3 4 10-12 8c2-9 2-20-2-36z" fill="#0b73c9"/>
  <path d="M12 15c15 2 30 9 40 22" stroke="#d8262f" stroke-width="2"/>
  <path d="M17 48c10-8 17-14 24-24" stroke="#0b73c9" stroke-width="2"/>
  <text x="32" y="35" text-anchor="middle" font-size="16" font-family="Arial, sans-serif" font-weight="700" fill="#e62b2f">ЕНИСЕЙ</text>
  <text x="32" y="52" text-anchor="middle" font-size="5" font-family="Arial, sans-serif" fill="#0b73c9">КРАСНОЯРСКИЙ КРАЙ</text>
</svg>
