<svg xmlns="http://www.w3.org/2000/svg" viewBox="0 0 64 64">
  <circle cx="32" cy="32" r="32" fill="#d6c6b6"/>
  <ellipse cx="32" cy="45" rx="15" ry="11" fill="#ceb29f"/>
  <ellipse cx="32" cy="32" rx="14" ry="16" fill="#f1d7bf"/>
  <path d="M18 28c2-12 6-17 14-17 7 0 12 5 14 17-4-3-9-5-14-5-6 0-10 2-14 5z" fill="#d9c4aa"/>
  <path d="M22 19c4-6 8-7 10-7 3 0 7 1 10 7" stroke="#e4d3ba" stroke-width="5" stroke-linecap="round"/>
  <circle cx="27" cy="33" r="1.5" fill="#7d684f"/>
  <circle cx="37" cy="33" r="1.5" fill="#7d684f"/>
  <path d="M27 39c3 2 7 2 10 0" stroke="#b89a7c" stroke-width="2" stroke-linecap="round"/>
</svg>
